<?xml version="1.0" encoding="UTF-8" standalone="no"?>
<!DOCTYPE svg PUBLIC "-//W3C//DTD SVG 1.1//EN"
 "http://www.w3.org/Graphics/SVG/1.1/DTD/svg11.dtd">
<!-- Generated by graphviz version 2.38.0 (20140413.2041)
 -->
<!-- Title: test Pages: 1 -->
<svg width="6290pt" height="4666pt"
 viewBox="0.00 0.00 6289.53 4665.86" xmlns="http://www.w3.org/2000/svg" xmlns:xlink="http://www.w3.org/1999/xlink">
<g id="graph0" class="graph" transform="scale(1 1) rotate(0) translate(4 4661.86)">
<title>test</title>
<polygon fill="white" stroke="none" points="-4,4 -4,-4661.86 6285.53,-4661.86 6285.53,4 -4,4"/>
<!-- ALEMÁN_MEDINA_DIANA_LUISA -->
<g id="node1" class="node"><title>ALEMÁN_MEDINA_DIANA_LUISA</title>
<ellipse fill="none" stroke="black" cx="151.437" cy="-2708.36" rx="151.373" ry="18"/>
<text text-anchor="middle" x="151.437" y="-2704.66" font-family="Times,serif" font-size="14.00">ALEMÁN_MEDINA_DIANA_LUISA</text>
</g>
<!-- Ayudador -->
<g id="node2" class="node"><title>Ayudador</title>
<ellipse fill="none" stroke="black" cx="3267.92" cy="-2552.1" rx="46.2923" ry="18"/>
<text text-anchor="middle" x="3267.92" y="-2548.4" font-family="Times,serif" font-size="14.00">Ayudador</text>
</g>
<!-- ALEMÁN_MEDINA_DIANA_LUISA&#45;&gt;Ayudador -->
<g id="edge1" class="edge"><title>ALEMÁN_MEDINA_DIANA_LUISA&#45;&gt;Ayudador</title>
<path fill="none" stroke="black" d="M291.145,-2701.35C841.861,-2673.74 2850.01,-2573.05 3211.86,-2554.91"/>
<polygon fill="black" stroke="black" points="3212.27,-2558.39 3222.08,-2554.4 3211.92,-2551.4 3212.27,-2558.39"/>
</g>
<!-- Romántico -->
<g id="node7" class="node"><title>Romántico</title>
<ellipse fill="none" stroke="black" cx="3181.36" cy="-2714.68" rx="50.0912" ry="18"/>
<text text-anchor="middle" x="3181.36" y="-2710.98" font-family="Times,serif" font-size="14.00">Romántico</text>
</g>
<!-- Ayudador&#45;&gt;Romántico -->
<g id="edge49" class="edge"><title>Ayudador&#45;&gt;Romántico</title>
<path fill="none" stroke="black" d="M3253.63,-2569.25C3235.55,-2597.35 3205.57,-2653.31 3190.35,-2687.05"/>
<polygon fill="black" stroke="black" points="3187.08,-2685.78 3186.29,-2696.35 3193.5,-2688.58 3187.08,-2685.78"/>
</g>
<!-- Retador -->
<g id="node31" class="node"><title>Retador</title>
<ellipse fill="none" stroke="black" cx="3452.01" cy="-2545.77" rx="38.1938" ry="18"/>
<text text-anchor="middle" x="3452.01" y="-2542.07" font-family="Times,serif" font-size="14.00">Retador</text>
</g>
<!-- Ayudador&#45;&gt;Retador -->
<g id="edge50" class="edge"><title>Ayudador&#45;&gt;Retador</title>
<path fill="none" stroke="black" d="M3313.16,-2556.44C3341.45,-2556.6 3377.78,-2555.36 3406.18,-2553.29"/>
<polygon fill="black" stroke="black" points="3406.56,-2556.77 3416.25,-2552.49 3406.01,-2549.79 3406.56,-2556.77"/>
</g>
<!-- ANAYA_GONZALEZ_DIANA_LAURA -->
<g id="node3" class="node"><title>ANAYA_GONZALEZ_DIANA_LAURA</title>
<ellipse fill="none" stroke="black" cx="1087.47" cy="-1231.68" rx="161.372" ry="18"/>
<text text-anchor="middle" x="1087.47" y="-1227.98" font-family="Times,serif" font-size="14.00">ANAYA_GONZALEZ_DIANA_LAURA</text>
</g>
<!-- ANAYA_GONZALEZ_DIANA_LAURA&#45;&gt;Ayudador -->
<g id="edge2" class="edge"><title>ANAYA_GONZALEZ_DIANA_LAURA&#45;&gt;Ayudador</title>
<path fill="none" stroke="black" d="M1117.05,-1249.59C1356.74,-1394.74 2978.51,-2376.84 3234.06,-2531.59"/>
<polygon fill="black" stroke="black" points="3232.53,-2534.76 3242.9,-2536.94 3236.16,-2528.77 3232.53,-2534.76"/>
</g>
<!-- BECERRA_MONTOYA_JESUS_ALBERTO -->
<g id="node4" class="node"><title>BECERRA_MONTOYA_JESUS_ALBERTO</title>
<ellipse fill="none" stroke="black" cx="1334.26" cy="-907.237" rx="174.669" ry="18"/>
<text text-anchor="middle" x="1334.26" y="-903.537" font-family="Times,serif" font-size="14.00">BECERRA_MONTOYA_JESUS_ALBERTO</text>
</g>
<!-- BECERRA_MONTOYA_JESUS_ALBERTO&#45;&gt;Ayudador -->
<g id="edge3" class="edge"><title>BECERRA_MONTOYA_JESUS_ALBERTO&#45;&gt;Ayudador</title>
<path fill="none" stroke="black" d="M1355.32,-925.149C1549.18,-1090.06 3021.24,-2342.25 3240.62,-2528.87"/>
<polygon fill="black" stroke="black" points="3238.57,-2531.72 3248.45,-2535.53 3243.1,-2526.39 3238.57,-2531.72"/>
</g>
<!-- CHAVEZ_RIVERA_DIANA -->
<g id="node5" class="node"><title>CHAVEZ_RIVERA_DIANA</title>
<ellipse fill="none" stroke="black" cx="1592.64" cy="-652.41" rx="116.18" ry="18"/>
<text text-anchor="middle" x="1592.64" y="-648.71" font-family="Times,serif" font-size="14.00">CHAVEZ_RIVERA_DIANA</text>
</g>
<!-- CHAVEZ_RIVERA_DIANA&#45;&gt;Ayudador -->
<g id="edge4" class="edge"><title>CHAVEZ_RIVERA_DIANA&#45;&gt;Ayudador</title>
<path fill="none" stroke="black" d="M1608.42,-670.302C1766.43,-849.47 3061.73,-2318.28 3246.12,-2527.37"/>
<polygon fill="black" stroke="black" points="3243.67,-2529.88 3252.91,-2535.07 3248.92,-2525.25 3243.67,-2529.88"/>
</g>
<!-- CRUZ_MORALES_JUAN_MANUEL -->
<g id="node6" class="node"><title>CRUZ_MORALES_JUAN_MANUEL</title>
<ellipse fill="none" stroke="black" cx="930.854" cy="-4051.76" rx="150.273" ry="18"/>
<text text-anchor="middle" x="930.854" y="-4048.06" font-family="Times,serif" font-size="14.00">CRUZ_MORALES_JUAN_MANUEL</text>
</g>
<!-- CRUZ_MORALES_JUAN_MANUEL&#45;&gt;Romántico -->
<g id="edge5" class="edge"><title>CRUZ_MORALES_JUAN_MANUEL&#45;&gt;Romántico</title>
<path fill="none" stroke="black" d="M960.966,-4033.87C1206.85,-3887.78 2882.25,-2892.39 3146.34,-2735.49"/>
<polygon fill="black" stroke="black" points="3148.33,-2738.38 3155.14,-2730.26 3144.75,-2732.36 3148.33,-2738.38"/>
</g>
<!-- Romántico&#45;&gt;Ayudador -->
<g id="edge48" class="edge"><title>Romántico&#45;&gt;Ayudador</title>
<path fill="none" stroke="black" d="M3195.85,-2697.22C3213.97,-2668.99 3243.83,-2613.22 3258.99,-2579.61"/>
<polygon fill="black" stroke="black" points="3262.24,-2580.92 3263.02,-2570.35 3255.82,-2578.12 3262.24,-2580.92"/>
</g>
<!-- Perfeccionista -->
<g id="node53" class="node"><title>Perfeccionista</title>
<ellipse fill="none" stroke="black" cx="3278.88" cy="-2870.94" rx="60.3893" ry="18"/>
<text text-anchor="middle" x="3278.88" y="-2867.24" font-family="Times,serif" font-size="14.00">Perfeccionista</text>
</g>
<!-- Romántico&#45;&gt;Perfeccionista -->
<g id="edge47" class="edge"><title>Romántico&#45;&gt;Perfeccionista</title>
<path fill="none" stroke="black" d="M3187.62,-2732.79C3201.47,-2760.41 3233.86,-2813.02 3256.2,-2844.78"/>
<polygon fill="black" stroke="black" points="3253.53,-2847.06 3262.2,-2853.15 3259.21,-2842.98 3253.53,-2847.06"/>
</g>
<!-- DE_LA_ROSA_GARCÍA_KARINA -->
<g id="node8" class="node"><title>DE_LA_ROSA_GARCÍA_KARINA</title>
<ellipse fill="none" stroke="black" cx="1856.13" cy="-451.874" rx="142.975" ry="18"/>
<text text-anchor="middle" x="1856.13" y="-448.174" font-family="Times,serif" font-size="14.00">DE_LA_ROSA_GARCÍA_KARINA</text>
</g>
<!-- DE_LA_ROSA_GARCÍA_KARINA&#45;&gt;Ayudador -->
<g id="edge6" class="edge"><title>DE_LA_ROSA_GARCÍA_KARINA&#45;&gt;Ayudador</title>
<path fill="none" stroke="black" d="M1868.34,-470.031C1996.73,-661.03 3097.9,-2299.16 3250.43,-2526.06"/>
<polygon fill="black" stroke="black" points="3247.73,-2528.33 3256.22,-2534.68 3253.54,-2524.43 3247.73,-2528.33"/>
</g>
<!-- DE_LEON_MEDELLIN_JOSE_EMILIANO -->
<g id="node9" class="node"><title>DE_LEON_MEDELLIN_JOSE_EMILIANO</title>
<ellipse fill="none" stroke="black" cx="4876.83" cy="-1913.7" rx="172.769" ry="18"/>
<text text-anchor="middle" x="4876.83" y="-1910" font-family="Times,serif" font-size="14.00">DE_LEON_MEDELLIN_JOSE_EMILIANO</text>
</g>
<!-- Investigador -->
<g id="node10" class="node"><title>Investigador</title>
<ellipse fill="none" stroke="black" cx="3549.53" cy="-2702.04" rx="54.6905" ry="18"/>
<text text-anchor="middle" x="3549.53" y="-2698.34" font-family="Times,serif" font-size="14.00">Investigador</text>
</g>
<!-- DE_LEON_MEDELLIN_JOSE_EMILIANO&#45;&gt;Investigador -->
<g id="edge7" class="edge"><title>DE_LEON_MEDELLIN_JOSE_EMILIANO&#45;&gt;Investigador</title>
<path fill="none" stroke="black" d="M4846.93,-1931.46C4671.26,-2035.8 3774.55,-2568.39 3584.82,-2681.08"/>
<polygon fill="black" stroke="black" points="3582.89,-2678.15 3576.08,-2686.27 3586.46,-2684.17 3582.89,-2678.15"/>
</g>
<!-- Entusiasta -->
<g id="node12" class="node"><title>Entusiasta</title>
<ellipse fill="none" stroke="black" cx="3462.96" cy="-2864.62" rx="46.5926" ry="18"/>
<text text-anchor="middle" x="3462.96" y="-2860.92" font-family="Times,serif" font-size="14.00">Entusiasta</text>
</g>
<!-- Investigador&#45;&gt;Entusiasta -->
<g id="edge54" class="edge"><title>Investigador&#45;&gt;Entusiasta</title>
<path fill="none" stroke="black" d="M3535.04,-2719.49C3516.92,-2747.73 3487.05,-2803.5 3471.9,-2837.11"/>
<polygon fill="black" stroke="black" points="3468.65,-2835.8 3467.87,-2846.37 3475.07,-2838.6 3468.65,-2835.8"/>
</g>
<!-- Investigador&#45;&gt;Retador -->
<g id="edge53" class="edge"><title>Investigador&#45;&gt;Retador</title>
<path fill="none" stroke="black" d="M3543.27,-2683.93C3529.27,-2656.01 3496.32,-2602.55 3473.97,-2570.91"/>
<polygon fill="black" stroke="black" points="3476.66,-2568.66 3467.97,-2562.61 3470.99,-2572.76 3476.66,-2568.66"/>
</g>
<!-- DE_LOS_REYES_MALDONADO_JAVIER -->
<g id="node11" class="node"><title>DE_LOS_REYES_MALDONADO_JAVIER</title>
<ellipse fill="none" stroke="black" cx="4690.97" cy="-3741.42" rx="172.769" ry="18"/>
<text text-anchor="middle" x="4690.97" y="-3737.72" font-family="Times,serif" font-size="14.00">DE_LOS_REYES_MALDONADO_JAVIER</text>
</g>
<!-- DE_LOS_REYES_MALDONADO_JAVIER&#45;&gt;Entusiasta -->
<g id="edge8" class="edge"><title>DE_LOS_REYES_MALDONADO_JAVIER&#45;&gt;Entusiasta</title>
<path fill="none" stroke="black" d="M4665.89,-3723.51C4509.25,-3611.67 3666.62,-3010.03 3493.91,-2886.72"/>
<polygon fill="black" stroke="black" points="3495.68,-2883.69 3485.51,-2880.72 3491.62,-2889.38 3495.68,-2883.69"/>
</g>
<!-- Entusiasta&#45;&gt;Investigador -->
<g id="edge55" class="edge"><title>Entusiasta&#45;&gt;Investigador</title>
<path fill="none" stroke="black" d="M3477.25,-2847.47C3495.33,-2819.37 3525.32,-2763.41 3540.54,-2729.67"/>
<polygon fill="black" stroke="black" points="3543.81,-2730.94 3544.59,-2720.37 3537.39,-2728.14 3543.81,-2730.94"/>
</g>
<!-- Entusiasta&#45;&gt;Perfeccionista -->
<g id="edge56" class="edge"><title>Entusiasta&#45;&gt;Perfeccionista</title>
<path fill="none" stroke="black" d="M3417.25,-2860.27C3394.96,-2860.17 3367.76,-2860.91 3343.39,-2862.25"/>
<polygon fill="black" stroke="black" points="3342.92,-2858.77 3333.14,-2862.85 3343.33,-2865.76 3342.92,-2858.77"/>
</g>
<!-- DELGADO_CHAVEZ_BRENDA_ELIZABETH -->
<g id="node13" class="node"><title>DELGADO_CHAVEZ_BRENDA_ELIZABETH</title>
<ellipse fill="none" stroke="black" cx="4912.24" cy="-4272.36" rx="186.567" ry="18"/>
<text text-anchor="middle" x="4912.24" y="-4268.66" font-family="Times,serif" font-size="14.00">DELGADO_CHAVEZ_BRENDA_ELIZABETH</text>
</g>
<!-- Leal_escéptico -->
<g id="node14" class="node"><title>Leal_escéptico</title>
<ellipse fill="none" stroke="black" cx="5658.27" cy="-4314.7" rx="63.8893" ry="18"/>
<text text-anchor="middle" x="5658.27" y="-4311" font-family="Times,serif" font-size="14.00">Leal_escéptico</text>
</g>
<!-- DELGADO_CHAVEZ_BRENDA_ELIZABETH&#45;&gt;Leal_escéptico -->
<g id="edge9" class="edge"><title>DELGADO_CHAVEZ_BRENDA_ELIZABETH&#45;&gt;Leal_escéptico</title>
<path fill="none" stroke="black" d="M5073.2,-4281.5C5231.99,-4290.51 5467.54,-4303.88 5585.46,-4310.57"/>
<polygon fill="black" stroke="black" points="5585.29,-4314.07 5595.47,-4311.14 5585.69,-4307.08 5585.29,-4314.07"/>
</g>
<!-- Logrero -->
<g id="node55" class="node"><title>Logrero</title>
<ellipse fill="none" stroke="black" cx="5822.84" cy="-4325.03" rx="38.9931" ry="18"/>
<text text-anchor="middle" x="5822.84" y="-4321.33" font-family="Times,serif" font-size="14.00">Logrero</text>
</g>
<!-- Leal_escéptico&#45;&gt;Logrero -->
<g id="edge58" class="edge"><title>Leal_escéptico&#45;&gt;Logrero</title>
<path fill="none" stroke="black" d="M5712.22,-4324.49C5732.18,-4326.28 5754.68,-4327.63 5774.16,-4328.2"/>
<polygon fill="black" stroke="black" points="5774.25,-4331.7 5784.33,-4328.42 5774.41,-4324.7 5774.25,-4331.7"/>
</g>
<!-- Mediador -->
<g id="node56" class="node"><title>Mediador</title>
<ellipse fill="none" stroke="black" cx="5749.5" cy="-4177.35" rx="45.4919" ry="18"/>
<text text-anchor="middle" x="5749.5" y="-4173.65" font-family="Times,serif" font-size="14.00">Mediador</text>
</g>
<!-- Leal_escéptico&#45;&gt;Mediador -->
<g id="edge60" class="edge"><title>Leal_escéptico&#45;&gt;Mediador</title>
<path fill="none" stroke="black" d="M5675.86,-4297.18C5694.16,-4273.74 5721.95,-4232.1 5737.78,-4204.57"/>
<polygon fill="black" stroke="black" points="5741.03,-4205.92 5742.84,-4195.48 5734.92,-4202.51 5741.03,-4205.92"/>
</g>
<!-- DIAZ_LEDEZMA_ALONDRA_GUADALUPE -->
<g id="node15" class="node"><title>DIAZ_LEDEZMA_ALONDRA_GUADALUPE</title>
<ellipse fill="none" stroke="black" cx="4076.38" cy="-837.36" rx="183.867" ry="18"/>
<text text-anchor="middle" x="4076.38" y="-833.66" font-family="Times,serif" font-size="14.00">DIAZ_LEDEZMA_ALONDRA_GUADALUPE</text>
</g>
<!-- 0 -->
<g id="node16" class="node"><title>0</title>
<ellipse fill="none" stroke="black" cx="5089.94" cy="-837.36" rx="27" ry="18"/>
<text text-anchor="middle" x="5089.94" y="-833.66" font-family="Times,serif" font-size="14.00">0</text>
</g>
<!-- DIAZ_LEDEZMA_ALONDRA_GUADALUPE&#45;&gt;0 -->
<g id="edge10" class="edge"><title>DIAZ_LEDEZMA_ALONDRA_GUADALUPE&#45;&gt;0</title>
<path fill="none" stroke="black" d="M4260.51,-837.36C4506.19,-837.36 4925.03,-837.36 5052.22,-837.36"/>
<polygon fill="black" stroke="black" points="5052.59,-840.86 5062.59,-837.36 5052.59,-833.86 5052.59,-840.86"/>
</g>
<!-- FLORES_AGUILERA_JAIME_ALEJANDRO -->
<g id="node17" class="node"><title>FLORES_AGUILERA_JAIME_ALEJANDRO</title>
<ellipse fill="none" stroke="black" cx="762.88" cy="-3687.45" rx="179.268" ry="18"/>
<text text-anchor="middle" x="762.88" y="-3683.75" font-family="Times,serif" font-size="14.00">FLORES_AGUILERA_JAIME_ALEJANDRO</text>
</g>
<!-- FLORES_AGUILERA_JAIME_ALEJANDRO&#45;&gt;Romántico -->
<g id="edge11" class="edge"><title>FLORES_AGUILERA_JAIME_ALEJANDRO&#45;&gt;Romántico</title>
<path fill="none" stroke="black" d="M806.401,-3669.94C1104.46,-3550.06 2841.46,-2851.4 3138.23,-2732.03"/>
<polygon fill="black" stroke="black" points="3139.81,-2735.16 3147.78,-2728.19 3137.2,-2728.67 3139.81,-2735.16"/>
</g>
<!-- GARCIA_MONTALVO_JONATHAN_GABRIEL -->
<g id="node18" class="node"><title>GARCIA_MONTALVO_JONATHAN_GABRIEL</title>
<ellipse fill="none" stroke="black" cx="4578.22" cy="-627.983" rx="193.066" ry="18"/>
<text text-anchor="middle" x="4578.22" y="-624.283" font-family="Times,serif" font-size="14.00">GARCIA_MONTALVO_JONATHAN_GABRIEL</text>
</g>
<!-- GARCIA_MONTALVO_JONATHAN_GABRIEL&#45;&gt;0 -->
<g id="edge12" class="edge"><title>GARCIA_MONTALVO_JONATHAN_GABRIEL&#45;&gt;0</title>
<path fill="none" stroke="black" d="M4621.41,-645.654C4721.74,-686.706 4968.77,-787.779 5057.52,-824.096"/>
<polygon fill="black" stroke="black" points="5056.24,-827.353 5066.82,-827.901 5058.89,-820.875 5056.24,-827.353"/>
</g>
<!-- HERNANDEZ_PEREZ_SAYRA_NAHOMY -->
<g id="node19" class="node"><title>HERNANDEZ_PEREZ_SAYRA_NAHOMY</title>
<ellipse fill="none" stroke="black" cx="6031.94" cy="-4040.59" rx="174.369" ry="18"/>
<text text-anchor="middle" x="6031.94" y="-4036.89" font-family="Times,serif" font-size="14.00">HERNANDEZ_PEREZ_SAYRA_NAHOMY</text>
</g>
<!-- HERNANDEZ_PEREZ_SAYRA_NAHOMY&#45;&gt;Leal_escéptico -->
<g id="edge13" class="edge"><title>HERNANDEZ_PEREZ_SAYRA_NAHOMY&#45;&gt;Leal_escéptico</title>
<path fill="none" stroke="black" d="M6007.42,-4058.58C5941.89,-4106.65 5762.72,-4238.08 5689.79,-4291.58"/>
<polygon fill="black" stroke="black" points="5687.43,-4288.98 5681.44,-4297.71 5691.57,-4294.62 5687.43,-4288.98"/>
</g>
<!-- HINOJOSA_GONZÁLEZ_LILIANA_GUADALUPE -->
<g id="node20" class="node"><title>HINOJOSA_GONZÁLEZ_LILIANA_GUADALUPE</title>
<ellipse fill="none" stroke="black" cx="6061.54" cy="-4461.48" rx="202.564" ry="18"/>
<text text-anchor="middle" x="6061.54" y="-4457.78" font-family="Times,serif" font-size="14.00">HINOJOSA_GONZÁLEZ_LILIANA_GUADALUPE</text>
</g>
<!-- HINOJOSA_GONZÁLEZ_LILIANA_GUADALUPE&#45;&gt;Leal_escéptico -->
<g id="edge14" class="edge"><title>HINOJOSA_GONZÁLEZ_LILIANA_GUADALUPE&#45;&gt;Leal_escéptico</title>
<path fill="none" stroke="black" d="M6013.29,-4443.92C5935.91,-4415.75 5784.85,-4360.77 5707.1,-4332.47"/>
<polygon fill="black" stroke="black" points="5708.13,-4329.12 5697.53,-4328.99 5705.73,-4335.7 5708.13,-4329.12"/>
</g>
<!-- IBARRA_LUMBRERAS_JASSIEL_EDUARDO -->
<g id="node21" class="node"><title>IBARRA_LUMBRERAS_JASSIEL_EDUARDO</title>
<ellipse fill="none" stroke="black" cx="2205.73" cy="-253.812" rx="187.367" ry="18"/>
<text text-anchor="middle" x="2205.73" y="-250.112" font-family="Times,serif" font-size="14.00">IBARRA_LUMBRERAS_JASSIEL_EDUARDO</text>
</g>
<!-- IBARRA_LUMBRERAS_JASSIEL_EDUARDO&#45;&gt;Ayudador -->
<g id="edge15" class="edge"><title>IBARRA_LUMBRERAS_JASSIEL_EDUARDO&#45;&gt;Ayudador</title>
<path fill="none" stroke="black" d="M2214.12,-271.977C2307.08,-473.106 3142.81,-2281.39 3255.4,-2524.99"/>
<polygon fill="black" stroke="black" points="3252.29,-2526.61 3259.66,-2534.21 3258.64,-2523.67 3252.29,-2526.61"/>
</g>
<!-- LEAL_SOSA_ERICK_ENRIQUE -->
<g id="node22" class="node"><title>LEAL_SOSA_ERICK_ENRIQUE</title>
<ellipse fill="none" stroke="black" cx="5014.63" cy="-2265.68" rx="133.776" ry="18"/>
<text text-anchor="middle" x="5014.63" y="-2261.98" font-family="Times,serif" font-size="14.00">LEAL_SOSA_ERICK_ENRIQUE</text>
</g>
<!-- LEAL_SOSA_ERICK_ENRIQUE&#45;&gt;Investigador -->
<g id="edge16" class="edge"><title>LEAL_SOSA_ERICK_ENRIQUE&#45;&gt;Investigador</title>
<path fill="none" stroke="black" d="M4959.43,-2282.12C4726.31,-2351.56 3824.14,-2620.25 3600.11,-2686.97"/>
<polygon fill="black" stroke="black" points="3598.85,-2683.7 3590.26,-2689.91 3600.84,-2690.41 3598.85,-2683.7"/>
</g>
<!-- LOPEZ_CABRERA_KAREM -->
<g id="node23" class="node"><title>LOPEZ_CABRERA_KAREM</title>
<ellipse fill="none" stroke="black" cx="4831.89" cy="-348.379" rx="120.479" ry="18"/>
<text text-anchor="middle" x="4831.89" y="-344.679" font-family="Times,serif" font-size="14.00">LOPEZ_CABRERA_KAREM</text>
</g>
<!-- LOPEZ_CABRERA_KAREM&#45;&gt;0 -->
<g id="edge17" class="edge"><title>LOPEZ_CABRERA_KAREM&#45;&gt;0</title>
<path fill="none" stroke="black" d="M4841.38,-366.362C4880.55,-440.598 5029.81,-723.419 5076.14,-811.208"/>
<polygon fill="black" stroke="black" points="5073.14,-813.027 5080.9,-820.238 5079.33,-809.76 5073.14,-813.027"/>
</g>
<!-- MALDONADO_DE_LA_FUENTE_TANIA_LIZETTE -->
<g id="node24" class="node"><title>MALDONADO_DE_LA_FUENTE_TANIA_LIZETTE</title>
<ellipse fill="none" stroke="black" cx="636.924" cy="-3244.21" rx="209.863" ry="18"/>
<text text-anchor="middle" x="636.924" y="-3240.51" font-family="Times,serif" font-size="14.00">MALDONADO_DE_LA_FUENTE_TANIA_LIZETTE</text>
</g>
<!-- MALDONADO_DE_LA_FUENTE_TANIA_LIZETTE&#45;&gt;Romántico -->
<g id="edge18" class="edge"><title>MALDONADO_DE_LA_FUENTE_TANIA_LIZETTE&#45;&gt;Romántico</title>
<path fill="none" stroke="black" d="M716.922,-3227.56C1106.91,-3146.4 2803.12,-2793.4 3127.6,-2725.87"/>
<polygon fill="black" stroke="black" points="3128.6,-2729.24 3137.68,-2723.77 3127.17,-2722.38 3128.6,-2729.24"/>
</g>
<!-- MALDONADO_SÁNCHEZ_OSCAR_MANUEL -->
<g id="node25" class="node"><title>MALDONADO_SÁNCHEZ_OSCAR_MANUEL</title>
<ellipse fill="none" stroke="black" cx="5202.69" cy="-296.081" rx="189.567" ry="18"/>
<text text-anchor="middle" x="5202.69" y="-292.381" font-family="Times,serif" font-size="14.00">MALDONADO_SÁNCHEZ_OSCAR_MANUEL</text>
</g>
<!-- MALDONADO_SÁNCHEZ_OSCAR_MANUEL&#45;&gt;0 -->
<g id="edge19" class="edge"><title>MALDONADO_SÁNCHEZ_OSCAR_MANUEL&#45;&gt;0</title>
<path fill="none" stroke="black" d="M5198.93,-314.09C5182.4,-393.478 5115.94,-712.521 5095.77,-809.354"/>
<polygon fill="black" stroke="black" points="5092.32,-808.779 5093.71,-819.283 5099.17,-810.207 5092.32,-808.779"/>
</g>
<!-- MARQUEZ_FLORES_YENI_LIZETH -->
<g id="node26" class="node"><title>MARQUEZ_FLORES_YENI_LIZETH</title>
<ellipse fill="none" stroke="black" cx="2589.45" cy="-106.904" rx="152.173" ry="18"/>
<text text-anchor="middle" x="2589.45" y="-103.204" font-family="Times,serif" font-size="14.00">MARQUEZ_FLORES_YENI_LIZETH</text>
</g>
<!-- MARQUEZ_FLORES_YENI_LIZETH&#45;&gt;Ayudador -->
<g id="edge20" class="edge"><title>MARQUEZ_FLORES_YENI_LIZETH&#45;&gt;Ayudador</title>
<path fill="none" stroke="black" d="M2594.52,-125.18C2652.47,-334.03 3188.9,-2267.29 3260.13,-2523.99"/>
<polygon fill="black" stroke="black" points="3256.86,-2525.3 3262.9,-2534 3263.6,-2523.43 3256.86,-2525.3"/>
</g>
<!-- MARROQUIN_PESINA_GRECIA_GUADALUPE -->
<g id="node27" class="node"><title>MARROQUIN_PESINA_GRECIA_GUADALUPE</title>
<ellipse fill="none" stroke="black" cx="5072.38" cy="-2662.09" rx="195.765" ry="18"/>
<text text-anchor="middle" x="5072.38" y="-2658.39" font-family="Times,serif" font-size="14.00">MARROQUIN_PESINA_GRECIA_GUADALUPE</text>
</g>
<!-- MARROQUIN_PESINA_GRECIA_GUADALUPE&#45;&gt;Investigador -->
<g id="edge21" class="edge"><title>MARROQUIN_PESINA_GRECIA_GUADALUPE&#45;&gt;Investigador</title>
<path fill="none" stroke="black" d="M4884.12,-2667.03C4541.58,-2676.02 3831.69,-2694.64 3614.25,-2700.34"/>
<polygon fill="black" stroke="black" points="3613.87,-2696.85 3603.96,-2700.61 3614.05,-2703.85 3613.87,-2696.85"/>
</g>
<!-- MARTINEZ_ARAMBULA_CARLOS_HUMBERTO -->
<g id="node28" class="node"><title>MARTINEZ_ARAMBULA_CARLOS_HUMBERTO</title>
<ellipse fill="none" stroke="black" cx="5569.29" cy="-561.834" rx="204.964" ry="18"/>
<text text-anchor="middle" x="5569.29" y="-558.134" font-family="Times,serif" font-size="14.00">MARTINEZ_ARAMBULA_CARLOS_HUMBERTO</text>
</g>
<!-- MARTINEZ_ARAMBULA_CARLOS_HUMBERTO&#45;&gt;0 -->
<g id="edge22" class="edge"><title>MARTINEZ_ARAMBULA_CARLOS_HUMBERTO&#45;&gt;0</title>
<path fill="none" stroke="black" d="M5538.21,-579.7C5450.93,-629.871 5204.4,-771.572 5119.28,-820.498"/>
<polygon fill="black" stroke="black" points="5117.33,-817.582 5110.4,-825.599 5120.82,-823.651 5117.33,-817.582"/>
</g>
<!-- MARTINEZ_LOPEZ_LILIA_LIZETH -->
<g id="node29" class="node"><title>MARTINEZ_LOPEZ_LILIA_LIZETH</title>
<ellipse fill="none" stroke="black" cx="5700.73" cy="-4639.86" rx="150.574" ry="18"/>
<text text-anchor="middle" x="5700.73" y="-4636.16" font-family="Times,serif" font-size="14.00">MARTINEZ_LOPEZ_LILIA_LIZETH</text>
</g>
<!-- MARTINEZ_LOPEZ_LILIA_LIZETH&#45;&gt;Leal_escéptico -->
<g id="edge23" class="edge"><title>MARTINEZ_LOPEZ_LILIA_LIZETH&#45;&gt;Leal_escéptico</title>
<path fill="none" stroke="black" d="M5698.33,-4621.44C5691.25,-4567.23 5670.45,-4407.93 5661.95,-4342.87"/>
<polygon fill="black" stroke="black" points="5665.42,-4342.38 5660.65,-4332.92 5658.48,-4343.28 5665.42,-4342.38"/>
</g>
<!-- MEDRANO_DOMINGUEZ_DIEGO_ARMANDO -->
<g id="node30" class="node"><title>MEDRANO_DOMINGUEZ_DIEGO_ARMANDO</title>
<ellipse fill="none" stroke="black" cx="4086.77" cy="-1353.63" rx="195.765" ry="18"/>
<text text-anchor="middle" x="4086.77" y="-1349.93" font-family="Times,serif" font-size="14.00">MEDRANO_DOMINGUEZ_DIEGO_ARMANDO</text>
</g>
<!-- MEDRANO_DOMINGUEZ_DIEGO_ARMANDO&#45;&gt;Retador -->
<g id="edge24" class="edge"><title>MEDRANO_DOMINGUEZ_DIEGO_ARMANDO&#45;&gt;Retador</title>
<path fill="none" stroke="black" d="M4077.05,-1371.88C4004.87,-1507.45 3552.53,-2356.99 3466.23,-2519.07"/>
<polygon fill="black" stroke="black" points="3463.12,-2517.46 3461.51,-2527.93 3469.3,-2520.75 3463.12,-2517.46"/>
</g>
<!-- Retador&#45;&gt;Ayudador -->
<g id="edge51" class="edge"><title>Retador&#45;&gt;Ayudador</title>
<path fill="none" stroke="black" d="M3414.57,-2541.51C3387.55,-2541.08 3350.7,-2542.14 3320.7,-2544.1"/>
<polygon fill="black" stroke="black" points="3320.13,-2540.63 3310.4,-2544.83 3320.63,-2547.62 3320.13,-2540.63"/>
</g>
<!-- Retador&#45;&gt;Investigador -->
<g id="edge52" class="edge"><title>Retador&#45;&gt;Investigador</title>
<path fill="none" stroke="black" d="M3458.12,-2563.58C3471.94,-2591.23 3504.71,-2644.44 3527.13,-2676.27"/>
<polygon fill="black" stroke="black" points="3524.47,-2678.57 3533.16,-2684.64 3530.16,-2674.48 3524.47,-2678.57"/>
</g>
<!-- MEZA_MARTINEZ_ERICK_EDU -->
<g id="node32" class="node"><title>MEZA_MARTINEZ_ERICK_EDU</title>
<ellipse fill="none" stroke="black" cx="5414.52" cy="-4441.56" rx="139.976" ry="18"/>
<text text-anchor="middle" x="5414.52" y="-4437.86" font-family="Times,serif" font-size="14.00">MEZA_MARTINEZ_ERICK_EDU</text>
</g>
<!-- MEZA_MARTINEZ_ERICK_EDU&#45;&gt;Leal_escéptico -->
<g id="edge25" class="edge"><title>MEZA_MARTINEZ_ERICK_EDU&#45;&gt;Leal_escéptico</title>
<path fill="none" stroke="black" d="M5448.15,-4424.06C5492.72,-4400.86 5571.22,-4360.01 5618.62,-4335.34"/>
<polygon fill="black" stroke="black" points="5620.42,-4338.35 5627.67,-4330.63 5617.18,-4332.14 5620.42,-4338.35"/>
</g>
<!-- OLVERA_BOCANEGRA_KARLA_GUADALUPE -->
<g id="node33" class="node"><title>OLVERA_BOCANEGRA_KARLA_GUADALUPE</title>
<ellipse fill="none" stroke="black" cx="5445.26" cy="-4053.46" rx="198.465" ry="18"/>
<text text-anchor="middle" x="5445.26" y="-4049.76" font-family="Times,serif" font-size="14.00">OLVERA_BOCANEGRA_KARLA_GUADALUPE</text>
</g>
<!-- OLVERA_BOCANEGRA_KARLA_GUADALUPE&#45;&gt;Leal_escéptico -->
<g id="edge26" class="edge"><title>OLVERA_BOCANEGRA_KARLA_GUADALUPE&#45;&gt;Leal_escéptico</title>
<path fill="none" stroke="black" d="M5459.9,-4071.42C5496.93,-4116.83 5594.41,-4236.38 5637.4,-4289.1"/>
<polygon fill="black" stroke="black" points="5634.78,-4291.43 5643.81,-4296.97 5640.21,-4287.01 5634.78,-4291.43"/>
</g>
<!-- ORNELAS_GUAJARDO_EFREN -->
<g id="node34" class="node"><title>ORNELAS_GUAJARDO_EFREN</title>
<ellipse fill="none" stroke="black" cx="5629.1" cy="-959.825" rx="135.376" ry="18"/>
<text text-anchor="middle" x="5629.1" y="-956.125" font-family="Times,serif" font-size="14.00">ORNELAS_GUAJARDO_EFREN</text>
</g>
<!-- ORNELAS_GUAJARDO_EFREN&#45;&gt;0 -->
<g id="edge27" class="edge"><title>ORNELAS_GUAJARDO_EFREN&#45;&gt;0</title>
<path fill="none" stroke="black" d="M5560.54,-944.252C5444.59,-917.915 5213.78,-865.488 5125.45,-845.425"/>
<polygon fill="black" stroke="black" points="5126.17,-842 5115.65,-843.198 5124.62,-848.826 5126.17,-842"/>
</g>
<!-- PERALES_MIRELES_BLANCA_LILIANA -->
<g id="node35" class="node"><title>PERALES_MIRELES_BLANCA_LILIANA</title>
<ellipse fill="none" stroke="black" cx="586.125" cy="-2794.05" rx="171.67" ry="18"/>
<text text-anchor="middle" x="586.125" y="-2790.35" font-family="Times,serif" font-size="14.00">PERALES_MIRELES_BLANCA_LILIANA</text>
</g>
<!-- PERALES_MIRELES_BLANCA_LILIANA&#45;&gt;Romántico -->
<g id="edge28" class="edge"><title>PERALES_MIRELES_BLANCA_LILIANA&#45;&gt;Romántico</title>
<path fill="none" stroke="black" d="M750.931,-2789.01C1260.69,-2773.42 2797,-2726.44 3120.97,-2716.53"/>
<polygon fill="black" stroke="black" points="3121.2,-2720.02 3131.09,-2716.22 3120.99,-2713.03 3121.2,-2720.02"/>
</g>
<!-- PEREZ_BAEZ_MARIO_ALBERTO -->
<g id="node36" class="node"><title>PEREZ_BAEZ_MARIO_ALBERTO</title>
<ellipse fill="none" stroke="black" cx="5451.56" cy="-1255.6" rx="143.775" ry="18"/>
<text text-anchor="middle" x="5451.56" y="-1251.9" font-family="Times,serif" font-size="14.00">PEREZ_BAEZ_MARIO_ALBERTO</text>
</g>
<!-- PEREZ_BAEZ_MARIO_ALBERTO&#45;&gt;0 -->
<g id="edge29" class="edge"><title>PEREZ_BAEZ_MARIO_ALBERTO&#45;&gt;0</title>
<path fill="none" stroke="black" d="M5436.02,-1237.63C5378.23,-1170.78 5175.65,-936.488 5110.38,-860.994"/>
<polygon fill="black" stroke="black" points="5112.64,-858.267 5103.46,-852.992 5107.35,-862.846 5112.64,-858.267"/>
</g>
<!-- PEREZ_LUGO_JOSÉ_DE_JESÚS -->
<g id="node37" class="node"><title>PEREZ_LUGO_JOSÉ_DE_JESÚS</title>
<ellipse fill="none" stroke="black" cx="4425.06" cy="-4012.75" rx="135.676" ry="18"/>
<text text-anchor="middle" x="4425.06" y="-4009.05" font-family="Times,serif" font-size="14.00">PEREZ_LUGO_JOSÉ_DE_JESÚS</text>
</g>
<!-- PEREZ_LUGO_JOSÉ_DE_JESÚS&#45;&gt;Entusiasta -->
<g id="edge30" class="edge"><title>PEREZ_LUGO_JOSÉ_DE_JESÚS&#45;&gt;Entusiasta</title>
<path fill="none" stroke="black" d="M4409.95,-3994.72C4299.21,-3862.56 3613.65,-3044.44 3484.08,-2889.82"/>
<polygon fill="black" stroke="black" points="3486.44,-2887.19 3477.33,-2881.77 3481.07,-2891.68 3486.44,-2887.19"/>
</g>
<!-- PESINA_SALAZAR_KARLA_MAYTE -->
<g id="node38" class="node"><title>PESINA_SALAZAR_KARLA_MAYTE</title>
<ellipse fill="none" stroke="black" cx="4118.98" cy="-4210.5" rx="157.072" ry="18"/>
<text text-anchor="middle" x="4118.98" y="-4206.8" font-family="Times,serif" font-size="14.00">PESINA_SALAZAR_KARLA_MAYTE</text>
</g>
<!-- PESINA_SALAZAR_KARLA_MAYTE&#45;&gt;Entusiasta -->
<g id="edge31" class="edge"><title>PESINA_SALAZAR_KARLA_MAYTE&#45;&gt;Entusiasta</title>
<path fill="none" stroke="black" d="M4110.2,-4192.49C4039.39,-4047.23 3561.93,-3067.67 3476.15,-2891.68"/>
<polygon fill="black" stroke="black" points="3479.24,-2890.02 3471.71,-2882.57 3472.94,-2893.09 3479.24,-2890.02"/>
</g>
<!-- PEÑA_PEREZ_YAJAIRA -->
<g id="node39" class="node"><title>PEÑA_PEREZ_YAJAIRA</title>
<ellipse fill="none" stroke="black" cx="5041.61" cy="-3034.3" rx="106.681" ry="18"/>
<text text-anchor="middle" x="5041.61" y="-3030.6" font-family="Times,serif" font-size="14.00">PEÑA_PEREZ_YAJAIRA</text>
</g>
<!-- PEÑA_PEREZ_YAJAIRA&#45;&gt;Investigador -->
<g id="edge32" class="edge"><title>PEÑA_PEREZ_YAJAIRA&#45;&gt;Investigador</title>
<path fill="none" stroke="black" d="M4977.02,-3019.92C4728.59,-2964.59 3836.97,-2766.05 3605.01,-2714.39"/>
<polygon fill="black" stroke="black" points="3605.63,-2710.94 3595.11,-2712.19 3604.11,-2717.78 3605.63,-2710.94"/>
</g>
<!-- PINEDA_GONZALEZ_IRMA_ARODI -->
<g id="node40" class="node"><title>PINEDA_GONZALEZ_IRMA_ARODI</title>
<ellipse fill="none" stroke="black" cx="5820.31" cy="-3910.43" rx="154.073" ry="18"/>
<text text-anchor="middle" x="5820.31" y="-3906.73" font-family="Times,serif" font-size="14.00">PINEDA_GONZALEZ_IRMA_ARODI</text>
</g>
<!-- PINEDA_GONZALEZ_IRMA_ARODI&#45;&gt;Leal_escéptico -->
<g id="edge33" class="edge"><title>PINEDA_GONZALEZ_IRMA_ARODI&#45;&gt;Leal_escéptico</title>
<path fill="none" stroke="black" d="M5813.03,-3928.59C5787.28,-3992.84 5700.34,-4209.75 5669.36,-4287.06"/>
<polygon fill="black" stroke="black" points="5666,-4286.01 5665.53,-4296.6 5672.5,-4288.62 5666,-4286.01"/>
</g>
<!-- QUINTANILLA_AVALOS_ARLETH_ISAMAR -->
<g id="node41" class="node"><title>QUINTANILLA_AVALOS_ARLETH_ISAMAR</title>
<ellipse fill="none" stroke="black" cx="3726.23" cy="-4349.72" rx="188.467" ry="18"/>
<text text-anchor="middle" x="3726.23" y="-4346.02" font-family="Times,serif" font-size="14.00">QUINTANILLA_AVALOS_ARLETH_ISAMAR</text>
</g>
<!-- QUINTANILLA_AVALOS_ARLETH_ISAMAR&#45;&gt;Entusiasta -->
<g id="edge34" class="edge"><title>QUINTANILLA_AVALOS_ARLETH_ISAMAR&#45;&gt;Entusiasta</title>
<path fill="none" stroke="black" d="M3723,-4331.48C3695.55,-4176.68 3501.89,-3084.22 3468.01,-2893.12"/>
<polygon fill="black" stroke="black" points="3471.42,-2892.25 3466.22,-2883.02 3464.52,-2893.48 3471.42,-2892.25"/>
</g>
<!-- QUINTANILLA_IBARRA_ROSA_ISELA -->
<g id="node42" class="node"><title>QUINTANILLA_IBARRA_ROSA_ISELA</title>
<ellipse fill="none" stroke="black" cx="603.539" cy="-2386.12" rx="165.171" ry="18"/>
<text text-anchor="middle" x="603.539" y="-2382.42" font-family="Times,serif" font-size="14.00">QUINTANILLA_IBARRA_ROSA_ISELA</text>
</g>
<!-- QUINTANILLA_IBARRA_ROSA_ISELA&#45;&gt;Romántico -->
<g id="edge35" class="edge"><title>QUINTANILLA_IBARRA_ROSA_ISELA&#45;&gt;Romántico</title>
<path fill="none" stroke="black" d="M711.023,-2399.82C1149.35,-2455.69 2794.12,-2665.33 3123.66,-2707.33"/>
<polygon fill="black" stroke="black" points="3123.57,-2710.84 3133.93,-2708.64 3124.45,-2703.9 3123.57,-2710.84"/>
</g>
<!-- QUINTANILLA_IBARRA_YADIRA_NOEMI -->
<g id="node43" class="node"><title>QUINTANILLA_IBARRA_YADIRA_NOEMI</title>
<ellipse fill="none" stroke="black" cx="6100.85" cy="-4176.36" rx="180.868" ry="18"/>
<text text-anchor="middle" x="6100.85" y="-4172.66" font-family="Times,serif" font-size="14.00">QUINTANILLA_IBARRA_YADIRA_NOEMI</text>
</g>
<!-- QUINTANILLA_IBARRA_YADIRA_NOEMI&#45;&gt;Leal_escéptico -->
<g id="edge36" class="edge"><title>QUINTANILLA_IBARRA_YADIRA_NOEMI&#45;&gt;Leal_escéptico</title>
<path fill="none" stroke="black" d="M6045.69,-4193.6C5959.77,-4220.46 5795.09,-4271.94 5710.8,-4298.28"/>
<polygon fill="black" stroke="black" points="5709.68,-4294.97 5701.18,-4301.29 5711.77,-4301.65 5709.68,-4294.97"/>
</g>
<!-- RAMOS_RODRIGUEZ_LINDA_ESMERALDA -->
<g id="node44" class="node"><title>RAMOS_RODRIGUEZ_LINDA_ESMERALDA</title>
<ellipse fill="none" stroke="black" cx="4933.76" cy="-3383.76" rx="187.667" ry="18"/>
<text text-anchor="middle" x="4933.76" y="-3380.06" font-family="Times,serif" font-size="14.00">RAMOS_RODRIGUEZ_LINDA_ESMERALDA</text>
</g>
<!-- RAMOS_RODRIGUEZ_LINDA_ESMERALDA&#45;&gt;Investigador -->
<g id="edge37" class="edge"><title>RAMOS_RODRIGUEZ_LINDA_ESMERALDA&#45;&gt;Investigador</title>
<path fill="none" stroke="black" d="M4897.8,-3366.05C4704.58,-3270.89 3790.86,-2820.89 3589.04,-2721.5"/>
<polygon fill="black" stroke="black" points="3590.5,-2718.31 3579.98,-2717.03 3587.4,-2724.59 3590.5,-2718.31"/>
</g>
<!-- REQUENA_MENDOZA_DANIELA_LISSET -->
<g id="node45" class="node"><title>REQUENA_MENDOZA_DANIELA_LISSET</title>
<ellipse fill="none" stroke="black" cx="682.2" cy="-1978.87" rx="178.168" ry="18"/>
<text text-anchor="middle" x="682.2" y="-1975.17" font-family="Times,serif" font-size="14.00">REQUENA_MENDOZA_DANIELA_LISSET</text>
</g>
<!-- REQUENA_MENDOZA_DANIELA_LISSET&#45;&gt;Romántico -->
<g id="edge38" class="edge"><title>REQUENA_MENDOZA_DANIELA_LISSET&#45;&gt;Romántico</title>
<path fill="none" stroke="black" d="M740.298,-1995.97C1081.23,-2096.35 2817.81,-2607.65 3132.44,-2700.28"/>
<polygon fill="black" stroke="black" points="3131.6,-2703.68 3142.18,-2703.15 3133.58,-2696.97 3131.6,-2703.68"/>
</g>
<!-- REYES_ZAPATA_JOSUE_RODRIGO -->
<g id="node46" class="node"><title>REYES_ZAPATA_JOSUE_RODRIGO</title>
<ellipse fill="none" stroke="black" cx="5115.73" cy="-1389.65" rx="152.973" ry="18"/>
<text text-anchor="middle" x="5115.73" y="-1385.95" font-family="Times,serif" font-size="14.00">REYES_ZAPATA_JOSUE_RODRIGO</text>
</g>
<!-- REYES_ZAPATA_JOSUE_RODRIGO&#45;&gt;0 -->
<g id="edge39" class="edge"><title>REYES_ZAPATA_JOSUE_RODRIGO&#45;&gt;0</title>
<path fill="none" stroke="black" d="M5114.89,-1371.59C5111.13,-1291.05 5095.87,-964.271 5091.26,-865.665"/>
<polygon fill="black" stroke="black" points="5094.75,-865.388 5090.79,-855.563 5087.76,-865.715 5094.75,-865.388"/>
</g>
<!-- RIOS_BARRON_NORMA -->
<g id="node47" class="node"><title>RIOS_BARRON_NORMA</title>
<ellipse fill="none" stroke="black" cx="4797.52" cy="-1306.6" rx="109.381" ry="18"/>
<text text-anchor="middle" x="4797.52" y="-1302.9" font-family="Times,serif" font-size="14.00">RIOS_BARRON_NORMA</text>
</g>
<!-- RIOS_BARRON_NORMA&#45;&gt;0 -->
<g id="edge40" class="edge"><title>RIOS_BARRON_NORMA&#45;&gt;0</title>
<path fill="none" stroke="black" d="M4808.8,-1288.49C4853.92,-1216.08 5021.47,-947.236 5074.05,-862.862"/>
<polygon fill="black" stroke="black" points="5077.15,-864.509 5079.46,-854.171 5071.2,-860.807 5077.15,-864.509"/>
</g>
<!-- SOTO_IBARRA_CARLOS_HUMBERTO -->
<g id="node48" class="node"><title>SOTO_IBARRA_CARLOS_HUMBERTO</title>
<ellipse fill="none" stroke="black" cx="4578.22" cy="-1046.74" rx="164.371" ry="18"/>
<text text-anchor="middle" x="4578.22" y="-1043.04" font-family="Times,serif" font-size="14.00">SOTO_IBARRA_CARLOS_HUMBERTO</text>
</g>
<!-- SOTO_IBARRA_CARLOS_HUMBERTO&#45;&gt;0 -->
<g id="edge41" class="edge"><title>SOTO_IBARRA_CARLOS_HUMBERTO&#45;&gt;0</title>
<path fill="none" stroke="black" d="M4620.97,-1029.24C4720.99,-988.32 4968.5,-887.048 5057.45,-850.653"/>
<polygon fill="black" stroke="black" points="5058.84,-853.866 5066.77,-846.84 5056.19,-847.388 5058.84,-853.866"/>
</g>
<!-- VELAZCO_ARELLANO_ROBERTO_CARLOS -->
<g id="node49" class="node"><title>VELAZCO_ARELLANO_ROBERTO_CARLOS</title>
<ellipse fill="none" stroke="black" cx="3802.01" cy="-296.36" rx="187.667" ry="18"/>
<text text-anchor="middle" x="3802.01" y="-292.66" font-family="Times,serif" font-size="14.00">VELAZCO_ARELLANO_ROBERTO_CARLOS</text>
</g>
<!-- N -->
<g id="node50" class="node"><title>N</title>
<ellipse fill="none" stroke="black" cx="4088.84" cy="-296.36" rx="27" ry="18"/>
<text text-anchor="middle" x="4088.84" y="-292.66" font-family="Times,serif" font-size="14.00">N</text>
</g>
<!-- VELAZCO_ARELLANO_ROBERTO_CARLOS&#45;&gt;N -->
<g id="edge42" class="edge"><title>VELAZCO_ARELLANO_ROBERTO_CARLOS&#45;&gt;N</title>
<path fill="none" stroke="black" d="M3990.13,-296.36C4013.17,-296.36 4034.5,-296.36 4051.39,-296.36"/>
<polygon fill="black" stroke="black" points="4051.83,-299.86 4061.83,-296.36 4051.83,-292.86 4051.83,-299.86"/>
</g>
<!-- VILLARREAL_LOPEZ_CRISTINA_YAMILET -->
<g id="node51" class="node"><title>VILLARREAL_LOPEZ_CRISTINA_YAMILET</title>
<ellipse fill="none" stroke="black" cx="829.286" cy="-1568.25" rx="186.567" ry="18"/>
<text text-anchor="middle" x="829.286" y="-1564.55" font-family="Times,serif" font-size="14.00">VILLARREAL_LOPEZ_CRISTINA_YAMILET</text>
</g>
<!-- VILLARREAL_LOPEZ_CRISTINA_YAMILET&#45;&gt;Romántico -->
<g id="edge43" class="edge"><title>VILLARREAL_LOPEZ_CRISTINA_YAMILET&#45;&gt;Romántico</title>
<path fill="none" stroke="black" d="M865.759,-1586.02C1138.88,-1719.15 2861.21,-2558.64 3142.52,-2695.75"/>
<polygon fill="black" stroke="black" points="3141.03,-2698.92 3151.55,-2700.15 3144.09,-2692.63 3141.03,-2698.92"/>
</g>
<!-- WALLE_ALMAZAN_MARIELA_SARAHI -->
<g id="node52" class="node"><title>WALLE_ALMAZAN_MARIELA_SARAHI</title>
<ellipse fill="none" stroke="black" cx="2655" cy="-4042.65" rx="172.769" ry="18"/>
<text text-anchor="middle" x="2655" y="-4038.95" font-family="Times,serif" font-size="14.00">WALLE_ALMAZAN_MARIELA_SARAHI</text>
</g>
<!-- WALLE_ALMAZAN_MARIELA_SARAHI&#45;&gt;Perfeccionista -->
<g id="edge44" class="edge"><title>WALLE_ALMAZAN_MARIELA_SARAHI&#45;&gt;Perfeccionista</title>
<path fill="none" stroke="black" d="M2664.8,-4024.24C2736.39,-3889.78 3178.46,-3059.54 3264.4,-2898.12"/>
<polygon fill="black" stroke="black" points="3267.72,-2899.35 3269.33,-2888.88 3261.54,-2896.06 3267.72,-2899.35"/>
</g>
<!-- Perfeccionista&#45;&gt;Romántico -->
<g id="edge46" class="edge"><title>Perfeccionista&#45;&gt;Romántico</title>
<path fill="none" stroke="black" d="M3272.61,-2852.84C3258.69,-2825.07 3226.02,-2772.03 3203.67,-2740.33"/>
<polygon fill="black" stroke="black" points="3206.35,-2738.06 3197.67,-2731.99 3200.67,-2742.16 3206.35,-2738.06"/>
</g>
<!-- Perfeccionista&#45;&gt;Entusiasta -->
<g id="edge57" class="edge"><title>Perfeccionista&#45;&gt;Entusiasta</title>
<path fill="none" stroke="black" d="M3337.59,-2875.27C3360.8,-2875.07 3387.28,-2874.11 3409.9,-2872.64"/>
<polygon fill="black" stroke="black" points="3410.27,-2876.12 3420,-2871.92 3409.78,-2869.14 3410.27,-2876.12"/>
</g>
<!-- ZURITA_GONZÁLEZ_GRACIELA_GEORGETTE -->
<g id="node54" class="node"><title>ZURITA_GONZÁLEZ_GRACIELA_GEORGETTE</title>
<ellipse fill="none" stroke="black" cx="3002.53" cy="-18" rx="198.765" ry="18"/>
<text text-anchor="middle" x="3002.53" y="-14.3" font-family="Times,serif" font-size="14.00">ZURITA_GONZÁLEZ_GRACIELA_GEORGETTE</text>
</g>
<!-- ZURITA_GONZÁLEZ_GRACIELA_GEORGETTE&#45;&gt;Ayudador -->
<g id="edge45" class="edge"><title>ZURITA_GONZÁLEZ_GRACIELA_GEORGETTE&#45;&gt;Ayudador</title>
<path fill="none" stroke="black" d="M3004.44,-36.2314C3026.74,-249.168 3237.39,-2260.5 3264.95,-2523.73"/>
<polygon fill="black" stroke="black" points="3261.5,-2524.4 3266.03,-2533.98 3268.47,-2523.67 3261.5,-2524.4"/>
</g>
<!-- Logrero&#45;&gt;Leal_escéptico -->
<g id="edge59" class="edge"><title>Logrero&#45;&gt;Leal_escéptico</title>
<path fill="none" stroke="black" d="M5787.49,-4317.12C5771.12,-4315.24 5751.03,-4313.64 5731.61,-4312.58"/>
<polygon fill="black" stroke="black" points="5731.7,-4309.08 5721.54,-4312.08 5731.36,-4316.07 5731.7,-4309.08"/>
</g>
<!-- Logrero&#45;&gt;Mediador -->
<g id="edge63" class="edge"><title>Logrero&#45;&gt;Mediador</title>
<path fill="none" stroke="black" d="M5818.8,-4306.99C5808.97,-4281.09 5785.66,-4233.34 5768.62,-4203.55"/>
<polygon fill="black" stroke="black" points="5771.42,-4201.41 5763.34,-4194.57 5765.39,-4204.96 5771.42,-4201.41"/>
</g>
<!-- Mediador&#45;&gt;Leal_escéptico -->
<g id="edge61" class="edge"><title>Mediador&#45;&gt;Leal_escéptico</title>
<path fill="none" stroke="black" d="M5732.35,-4194.31C5714.03,-4217.68 5685.87,-4259.86 5669.93,-4287.61"/>
<polygon fill="black" stroke="black" points="5666.83,-4285.97 5665.02,-4296.41 5672.94,-4289.38 5666.83,-4285.97"/>
</g>
<!-- Mediador&#45;&gt;Logrero -->
<g id="edge62" class="edge"><title>Mediador&#45;&gt;Logrero</title>
<path fill="none" stroke="black" d="M5753.55,-4195.39C5763.37,-4221.29 5786.69,-4269.04 5803.72,-4298.82"/>
<polygon fill="black" stroke="black" points="5800.92,-4300.96 5809.01,-4307.81 5806.96,-4297.42 5800.92,-4300.96"/>
</g>
</g>
</svg>
